<?xml version="1.0" encoding="utf-8"?>
<!-- Generator: Adobe Illustrator 18.1.0, SVG Export Plug-In . SVG Version: 6.00 Build 0)  -->
<svg version="1.1" id="Layer_1" xmlns="http://www.w3.org/2000/svg" xmlns:xlink="http://www.w3.org/1999/xlink" x="0px" y="0px"
	 viewBox="0 0 440 100" enable-background="new 0 0 440 100" xml:space="preserve">
<path fill="#FFFFFF" d="M96.501,25.815C95.446,24.069,93.541,23,91.486,23H87l15.201,27L87,77h4.486c2.055,0,3.96-1.069,5.015-2.815
	L110,50L96.501,25.815z"/>
<path fill="#FFFFFF" d="M83,23H28.769C25.583,23,23,25.59,23,28.786v42.428C23,74.41,25.583,77,28.769,77H83l15-27L83,23z M51,62h-4
	L36,44.4V62h-4V38h4l11,17.6V38h4V62z M59,62h-4V38h4V62z M82,62h-4V52H67v10h-4V38h4v10h11V38h4V62z"/>
<g>
	<g>
		<path fill="#FFFFFF" d="M130.854,31h2.496v11.184h-2.496l-5.328-7.008v7.008h-2.496V31h2.336l5.488,7.199V31z"/>
		<path fill="#FFFFFF" d="M144.069,42.183l-1.04-2.416h-4.688l-1.04,2.416h-2.656L139.477,31h2.416l4.832,11.184H144.069z
			 M140.693,34.327l-1.408,3.248h2.8L140.693,34.327z"/>
		<path fill="#FFFFFF" d="M151.941,33.159v9.024h-2.496v-9.024h-3.168V31h8.832v2.159H151.941z"/>
		<path fill="#FFFFFF" d="M156.933,31h2.496v11.184h-2.496V31z"/>
		<path fill="#FFFFFF" d="M171.589,40.639c-1.131,1.104-2.523,1.656-4.176,1.656s-3.045-0.553-4.176-1.656
			c-1.131-1.104-1.696-2.478-1.696-4.12s0.565-3.016,1.696-4.12c1.13-1.104,2.522-1.656,4.176-1.656s3.045,0.553,4.176,1.656
			c1.13,1.104,1.696,2.478,1.696,4.12S172.719,39.535,171.589,40.639z M170.741,36.527c0-0.997-0.32-1.848-0.96-2.552
			s-1.427-1.056-2.36-1.056c-0.934,0-1.72,0.352-2.36,1.056c-0.64,0.704-0.96,1.555-0.96,2.552c0,0.998,0.32,1.846,0.96,2.544
			c0.64,0.699,1.427,1.048,2.36,1.048c0.933,0,1.72-0.349,2.36-1.048C170.421,38.373,170.741,37.525,170.741,36.527z"/>
		<path fill="#FFFFFF" d="M183.221,31h2.496v11.184h-2.496l-5.328-7.008v7.008h-2.496V31h2.336l5.488,7.199V31z"/>
		<path fill="#FFFFFF" d="M196.437,42.183l-1.04-2.416h-4.688l-1.04,2.416h-2.656L191.844,31h2.416l4.832,11.184H196.437z
			 M193.06,34.327l-1.408,3.248h2.8L193.06,34.327z"/>
		<path fill="#FFFFFF" d="M200.388,42.183V31h2.496v8.96h4.768v2.224H200.388z"/>
		<path fill="#FFFFFF" d="M218.836,39.975c1.226,0,2.229-0.485,3.008-1.456l1.6,1.648c-1.27,1.429-2.766,2.144-4.488,2.144
			s-3.141-0.544-4.256-1.632s-1.672-2.461-1.672-4.12c0-1.658,0.568-3.042,1.704-4.152c1.136-1.108,2.525-1.664,4.168-1.664
			c1.834,0,3.37,0.699,4.608,2.097l-1.552,1.76c-0.79-0.981-1.771-1.472-2.944-1.472c-0.939,0-1.742,0.307-2.408,0.92
			s-1,1.439-1,2.479s0.315,1.875,0.944,2.504C217.177,39.661,217.94,39.975,218.836,39.975z"/>
		<path fill="#FFFFFF" d="M233.3,42.183l-1.04-2.416h-4.688l-1.04,2.416h-2.656L228.708,31h2.416l4.832,11.184H233.3z
			 M229.924,34.327l-1.408,3.248h2.8L229.924,34.327z"/>
		<path fill="#FFFFFF" d="M245.076,31h2.496v11.184h-2.496l-5.328-7.008v7.008h-2.496V31h2.336l5.488,7.199V31z"/>
		<path fill="#FFFFFF" d="M255.46,39.975c1.226,0,2.229-0.485,3.008-1.456l1.6,1.648c-1.27,1.429-2.766,2.144-4.488,2.144
			s-3.141-0.544-4.256-1.632s-1.672-2.461-1.672-4.12c0-1.658,0.568-3.042,1.704-4.152c1.136-1.108,2.525-1.664,4.168-1.664
			c1.834,0,3.37,0.699,4.608,2.097l-1.552,1.76c-0.79-0.981-1.771-1.472-2.944-1.472c-0.939,0-1.742,0.307-2.408,0.92
			s-1,1.439-1,2.479s0.315,1.875,0.944,2.504C253.801,39.661,254.564,39.975,255.46,39.975z"/>
		<path fill="#FFFFFF" d="M270.1,31v2.224h-5.568v2.304h5.008v2.128h-5.008v2.32h5.744v2.208h-8.24V31H270.1z"/>
		<path fill="#FFFFFF" d="M281.572,34.711c0,1.792-0.71,2.949-2.128,3.472l2.832,4h-3.072l-2.48-3.568h-1.728v3.568H272.5V31h4.24
			c1.738,0,2.979,0.293,3.72,0.88S281.572,33.41,281.572,34.711z M278.563,36.04c0.309-0.277,0.464-0.718,0.464-1.32
			s-0.16-1.017-0.48-1.24c-0.32-0.224-0.88-0.336-1.68-0.336h-1.872v3.312h1.824C277.673,36.456,278.254,36.317,278.563,36.04z"/>
		<path fill="#FFFFFF" d="M288.355,31h2.496v11.184h-2.496V31z"/>
		<path fill="#FFFFFF" d="M301.427,31h2.496v11.184h-2.496l-5.328-7.008v7.008h-2.496V31h2.336l5.488,7.199V31z"/>
		<path fill="#FFFFFF" d="M309.291,33.231c-0.24,0.197-0.36,0.459-0.36,0.784s0.146,0.584,0.44,0.776
			c0.293,0.191,0.971,0.418,2.032,0.68c1.061,0.262,1.885,0.653,2.472,1.176c0.586,0.522,0.88,1.285,0.88,2.288
			s-0.376,1.816-1.128,2.44s-1.742,0.936-2.968,0.936c-1.771,0-3.365-0.656-4.784-1.968l1.488-1.824
			c1.205,1.056,2.32,1.584,3.344,1.584c0.458,0,0.818-0.099,1.08-0.296s0.392-0.464,0.392-0.8s-0.139-0.603-0.416-0.8
			s-0.827-0.397-1.648-0.601c-1.301-0.309-2.253-0.712-2.856-1.208s-0.904-1.274-0.904-2.336s0.381-1.88,1.144-2.456
			c0.762-0.576,1.714-0.864,2.856-0.864c0.747,0,1.493,0.129,2.24,0.385s1.397,0.618,1.952,1.088l-1.264,1.824
			c-0.971-0.736-1.973-1.104-3.008-1.104C309.859,32.935,309.531,33.034,309.291,33.231z"/>
		<path fill="#FFFFFF" d="M321.522,33.159v9.024h-2.496v-9.024h-3.168V31h8.832v2.159H321.522z"/>
		<path fill="#FFFFFF" d="M326.515,31h2.496v11.184h-2.496V31z"/>
		<path fill="#FFFFFF" d="M336.498,33.159v9.024h-2.496v-9.024h-3.168V31h8.832v2.159H336.498z"/>
		<path fill="#FFFFFF" d="M344.45,39.295c0.416,0.518,0.976,0.775,1.68,0.775s1.261-0.258,1.672-0.775s0.616-1.225,0.616-2.12V31
			h2.496v6.256c0,1.621-0.448,2.866-1.344,3.735c-0.896,0.87-2.043,1.305-3.44,1.305c-1.397,0-2.547-0.438-3.448-1.312
			c-0.901-0.874-1.352-2.117-1.352-3.728V31h2.496v6.176C343.826,38.071,344.034,38.778,344.45,39.295z"/>
		<path fill="#FFFFFF" d="M358.242,33.159v9.024h-2.496v-9.024h-3.168V31h8.832v2.159H358.242z"/>
		<path fill="#FFFFFF" d="M371.297,31v2.224h-5.568v2.304h5.008v2.128h-5.008v2.32h5.744v2.208h-8.24V31H371.297z"/>
	</g>
</g>
<g>
	<g>
		<path fill="#FFFFFF" d="M129.218,57.176V69.02h-3.276V57.176h-4.158v-2.835h11.592v2.835H129.218z"/>
		<path fill="#FFFFFF" d="M145.24,67.382c-1.274,1.204-2.769,1.806-4.483,1.806s-3.132-0.528-4.252-1.586
			c-1.12-1.057-1.68-2.474-1.68-4.252s0.57-3.192,1.711-4.242s2.489-1.575,4.043-1.575c1.554,0,2.873,0.47,3.958,1.407
			c1.084,0.938,1.627,2.227,1.627,3.864v1.68h-8.232c0.098,0.616,0.42,1.12,0.966,1.512c0.546,0.393,1.162,0.589,1.848,0.589
			c1.105,0,2.016-0.371,2.73-1.113L145.24,67.382z M142.216,60.683c-0.434-0.364-0.963-0.546-1.585-0.546
			c-0.623,0-1.194,0.188-1.711,0.566c-0.518,0.378-0.819,0.89-0.903,1.533h4.956C142.902,61.565,142.65,61.047,142.216,60.683z"/>
		<path fill="#FFFFFF" d="M153.851,66.395c1.05,0,1.995-0.525,2.835-1.575l1.869,2.101c-1.456,1.512-3.031,2.268-4.725,2.268
			c-1.694,0-3.126-0.535-4.295-1.606s-1.753-2.471-1.753-4.2c0-1.729,0.591-3.136,1.774-4.221s2.586-1.628,4.211-1.628
			c0.812,0,1.634,0.168,2.467,0.504s1.564,0.834,2.194,1.491l-1.638,2.143c-0.364-0.435-0.809-0.771-1.333-1.009
			c-0.525-0.237-1.047-0.356-1.564-0.356c-0.826,0-1.537,0.27-2.132,0.809s-0.893,1.288-0.893,2.247s0.297,1.704,0.893,2.236
			S153.052,66.395,153.851,66.395z"/>
		<path fill="#FFFFFF" d="M163.804,62.93v6.09h-3.15V53.438h3.15v5.544c0.952-0.966,2.019-1.449,3.202-1.449s2.181,0.42,2.993,1.261
			c0.812,0.84,1.218,1.96,1.218,3.359v6.867h-3.15v-6.174c0-1.736-0.637-2.604-1.911-2.604c-0.63,0-1.18,0.229-1.648,0.683
			C164.039,61.379,163.804,62.048,163.804,62.93z"/>
		<path fill="#FFFFFF" d="M177.223,62.72v6.3h-3.15V57.722h3.15v1.26c0.952-0.966,2.023-1.449,3.213-1.449s2.188,0.42,2.993,1.261
			c0.805,0.84,1.208,1.96,1.208,3.359v6.867h-3.15v-6.384c0-1.736-0.637-2.604-1.911-2.604c-0.63,0-1.18,0.228-1.648,0.683
			C177.458,61.169,177.223,61.838,177.223,62.72z"/>
		<path fill="#FFFFFF" d="M198.79,63.371c0,1.639-0.567,3.018-1.701,4.138c-1.134,1.12-2.559,1.68-4.273,1.68s-3.14-0.56-4.273-1.68
			s-1.701-2.499-1.701-4.138c0-1.638,0.567-3.02,1.701-4.147c1.134-1.126,2.559-1.69,4.273-1.69s3.14,0.564,4.273,1.69
			C198.223,60.351,198.79,61.733,198.79,63.371z M190.012,63.371c0,0.925,0.262,1.677,0.787,2.258
			c0.525,0.581,1.197,0.872,2.016,0.872s1.491-0.291,2.016-0.872s0.788-1.333,0.788-2.258c0-0.924-0.263-1.68-0.788-2.268
			s-1.197-0.882-2.016-0.882s-1.491,0.294-2.016,0.882C190.274,61.691,190.012,62.447,190.012,63.371z"/>
		<path fill="#FFFFFF" d="M204.271,69.02h-3.15V53.438h3.15V69.02z"/>
		<path fill="#FFFFFF" d="M218.55,63.371c0,1.639-0.567,3.018-1.701,4.138c-1.134,1.12-2.559,1.68-4.273,1.68s-3.14-0.56-4.273-1.68
			s-1.701-2.499-1.701-4.138c0-1.638,0.567-3.02,1.701-4.147c1.134-1.126,2.559-1.69,4.273-1.69s3.14,0.564,4.273,1.69
			C217.983,60.351,218.55,61.733,218.55,63.371z M209.772,63.371c0,0.925,0.262,1.677,0.787,2.258
			c0.525,0.581,1.197,0.872,2.016,0.872s1.491-0.291,2.016-0.872s0.788-1.333,0.788-2.258c0-0.924-0.263-1.68-0.788-2.268
			s-1.197-0.882-2.016-0.882s-1.491,0.294-2.016,0.882C210.035,61.691,209.772,62.447,209.772,63.371z"/>
		<path fill="#FFFFFF" d="M229.239,67.109c-0.994,1.106-2.229,1.659-3.707,1.659c-1.478,0-2.723-0.5-3.738-1.502
			c-1.015-1-1.522-2.338-1.522-4.011s0.521-3.045,1.564-4.116c1.043-1.07,2.237-1.606,3.581-1.606c1.344,0,2.457,0.554,3.339,1.659
			v-1.491h3.15v9.85c0,1.008-0.175,1.903-0.525,2.688c-0.35,0.784-0.819,1.4-1.407,1.849c-1.162,0.924-2.534,1.386-4.116,1.386
			c-0.84,0-1.697-0.137-2.572-0.409c-0.875-0.273-1.642-0.662-2.299-1.166l1.218-2.373c1.036,0.784,2.131,1.176,3.287,1.176
			c1.155,0,2.068-0.287,2.74-0.86C228.903,69.265,229.239,68.355,229.239,67.109z M228.798,63.129c0-0.903-0.252-1.613-0.756-2.132
			c-0.504-0.518-1.127-0.776-1.869-0.776c-0.742,0-1.383,0.259-1.922,0.776c-0.539,0.519-0.808,1.226-0.808,2.121
			c0,0.896,0.262,1.621,0.787,2.174c0.525,0.554,1.166,0.829,1.922,0.829c0.756,0,1.386-0.272,1.89-0.818
			S228.798,64.033,228.798,63.129z"/>
		<path fill="#FFFFFF" d="M236.841,73.472c-1.106,0-2.149-0.448-3.129-1.344l1.428-2.331c0.532,0.518,1.078,0.776,1.638,0.776
			c0.294,0,0.546-0.144,0.756-0.431c0.21-0.287,0.315-0.591,0.315-0.913s-1.457-4.158-4.368-11.508h3.36l2.751,7.035l2.751-7.035
			h3.36l-5.25,13.313c-0.308,0.771-0.788,1.369-1.438,1.796C238.363,73.258,237.639,73.472,236.841,73.472z"/>
		<path fill="#FFFFFF" d="M259.353,57.176V69.02h-3.276V57.176h-4.158v-2.835h11.592v2.835H259.353z"/>
		<path fill="#FFFFFF" d="M271.533,60.494c-0.938,0-1.638,0.333-2.1,0.998s-0.693,1.543-0.693,2.636v4.893h-3.15V57.722h3.15v1.491
			c0.406-0.462,0.914-0.854,1.522-1.177c0.609-0.321,1.229-0.489,1.858-0.504l0.021,2.961H271.533z"/>
		<path fill="#FFFFFF" d="M283.712,69.02h-2.961v-1.365c-0.812,1.022-1.816,1.533-3.014,1.533c-1.197,0-2.202-0.347-3.013-1.039
			c-0.812-0.693-1.218-1.617-1.218-2.772s0.42-2.02,1.26-2.594c0.84-0.573,1.988-0.86,3.444-0.86h2.352v-0.063
			c0-1.204-0.637-1.806-1.911-1.806c-0.546,0-1.124,0.108-1.732,0.325c-0.609,0.218-1.124,0.486-1.543,0.809l-1.407-2.037
			c1.483-1.078,3.178-1.617,5.082-1.617c1.372,0,2.492,0.344,3.36,1.029c0.868,0.687,1.302,1.771,1.302,3.255V69.02z
			 M280.542,64.715v-0.546h-1.974c-1.26,0-1.89,0.392-1.89,1.176c0,0.406,0.15,0.718,0.451,0.935
			c0.301,0.217,0.731,0.325,1.292,0.325s1.053-0.171,1.48-0.515C280.328,65.748,280.542,65.29,280.542,64.715z"/>
		<path fill="#FFFFFF" d="M289.74,62.72v6.3h-3.15V57.722h3.15v1.26c0.952-0.966,2.023-1.449,3.213-1.449s2.188,0.42,2.993,1.261
			c0.805,0.84,1.208,1.96,1.208,3.359v6.867h-3.15v-6.384c0-1.736-0.637-2.604-1.911-2.604c-0.63,0-1.18,0.228-1.648,0.683
			C289.974,61.169,289.74,61.838,289.74,62.72z"/>
		<path fill="#FFFFFF" d="M308.513,65.502c0,1.113-0.41,2.006-1.229,2.678s-1.858,1.008-3.119,1.008c-0.84,0-1.715-0.15-2.625-0.451
			s-1.729-0.746-2.457-1.334l1.386-1.974c1.176,0.91,2.429,1.365,3.759,1.365c0.406,0,0.728-0.081,0.966-0.242
			c0.238-0.16,0.357-0.374,0.357-0.641c0-0.266-0.165-0.511-0.494-0.734c-0.329-0.224-0.805-0.434-1.428-0.63
			s-1.099-0.364-1.428-0.504c-0.329-0.141-0.704-0.344-1.124-0.609c-0.854-0.532-1.281-1.319-1.281-2.362s0.42-1.894,1.26-2.552
			s1.925-0.987,3.255-0.987s2.66,0.448,3.99,1.345l-1.176,2.1c-0.98-0.672-1.957-1.008-2.929-1.008
			c-0.973,0-1.459,0.266-1.459,0.798c0,0.294,0.154,0.525,0.462,0.693c0.308,0.168,0.819,0.364,1.533,0.588
			c0.714,0.224,1.222,0.396,1.522,0.515c0.301,0.118,0.662,0.304,1.082,0.556C308.121,63.595,308.513,64.389,308.513,65.502z"/>
		<path fill="#FFFFFF" d="M314.687,57.071v0.756h2.73v2.269h-2.73v8.925h-3.171v-8.925h-1.323v-2.269h1.323v-0.692
			c0-1.232,0.375-2.209,1.124-2.93c0.749-0.721,1.68-1.082,2.793-1.082c1.113,0,2.124,0.421,3.034,1.261l-1.134,2.121
			c-0.462-0.532-0.973-0.799-1.533-0.799c-0.322,0-0.588,0.116-0.798,0.347C314.792,56.284,314.687,56.624,314.687,57.071z"/>
		<path fill="#FFFFFF" d="M329.156,67.382c-1.274,1.204-2.769,1.806-4.483,1.806s-3.132-0.528-4.252-1.586
			c-1.12-1.057-1.68-2.474-1.68-4.252s0.57-3.192,1.711-4.242s2.489-1.575,4.043-1.575c1.554,0,2.873,0.47,3.958,1.407
			c1.084,0.938,1.627,2.227,1.627,3.864v1.68h-8.232c0.098,0.616,0.42,1.12,0.966,1.512c0.546,0.393,1.162,0.589,1.848,0.589
			c1.105,0,2.016-0.371,2.73-1.113L329.156,67.382z M326.132,60.683c-0.434-0.364-0.963-0.546-1.585-0.546
			c-0.623,0-1.194,0.188-1.711,0.566c-0.518,0.378-0.819,0.89-0.903,1.533h4.956C326.818,61.565,326.566,61.047,326.132,60.683z"/>
		<path fill="#FFFFFF" d="M338.291,60.494c-0.938,0-1.638,0.333-2.1,0.998s-0.693,1.543-0.693,2.636v4.893h-3.15V57.722h3.15v1.491
			c0.406-0.462,0.914-0.854,1.522-1.177c0.609-0.321,1.229-0.489,1.858-0.504l0.021,2.961H338.291z"/>
		<path fill="#FFFFFF" d="M353.579,66.122c1.61,0,2.926-0.637,3.948-1.91l2.1,2.162c-1.667,1.877-3.63,2.814-5.891,2.814
			c-2.261,0-4.124-0.714-5.586-2.142c-1.463-1.429-2.195-3.23-2.195-5.408c0-2.177,0.746-3.993,2.237-5.449
			c1.491-1.456,3.314-2.184,5.47-2.184c2.408,0,4.424,0.917,6.048,2.751l-2.037,2.31c-1.036-1.288-2.324-1.932-3.864-1.932
			c-1.232,0-2.286,0.402-3.16,1.207c-0.875,0.806-1.312,1.891-1.312,3.255c0,1.365,0.413,2.461,1.239,3.287
			S352.403,66.122,353.579,66.122z"/>
		<path fill="#FFFFFF" d="M371.68,67.382c-1.274,1.204-2.769,1.806-4.483,1.806s-3.132-0.528-4.252-1.586
			c-1.12-1.057-1.68-2.474-1.68-4.252s0.57-3.192,1.711-4.242s2.489-1.575,4.043-1.575c1.554,0,2.873,0.47,3.958,1.407
			c1.084,0.938,1.627,2.227,1.627,3.864v1.68h-8.232c0.098,0.616,0.42,1.12,0.966,1.512c0.546,0.393,1.162,0.589,1.848,0.589
			c1.105,0,2.016-0.371,2.73-1.113L371.68,67.382z M368.656,60.683c-0.434-0.364-0.963-0.546-1.585-0.546
			c-0.623,0-1.194,0.188-1.711,0.566c-0.518,0.378-0.819,0.89-0.903,1.533h4.956C369.342,61.565,369.09,61.047,368.656,60.683z"/>
		<path fill="#FFFFFF" d="M378.022,62.72v6.3h-3.15V57.722h3.15v1.26c0.952-0.966,2.023-1.449,3.213-1.449s2.188,0.42,2.992,1.261
			c0.805,0.84,1.208,1.96,1.208,3.359v6.867h-3.15v-6.384c0-1.736-0.637-2.604-1.911-2.604c-0.63,0-1.18,0.228-1.648,0.683
			C378.257,61.169,378.022,61.838,378.022,62.72z"/>
		<path fill="#FFFFFF" d="M391.882,59.99v5.062c0,0.434,0.112,0.773,0.336,1.019s0.49,0.367,0.798,0.367
			c0.589,0,1.085-0.266,1.491-0.798l1.176,2.205c-0.979,0.896-2.013,1.344-3.097,1.344c-1.086,0-2.003-0.357-2.751-1.071
			c-0.749-0.714-1.124-1.687-1.124-2.919V59.99h-1.323v-2.268h1.323v-3.381h3.171v3.381h2.73v2.268H391.882z"/>
		<path fill="#FFFFFF" d="M407.148,67.382c-1.274,1.204-2.77,1.806-4.483,1.806c-1.716,0-3.133-0.528-4.253-1.586
			c-1.12-1.057-1.68-2.474-1.68-4.252s0.57-3.192,1.711-4.242c1.142-1.05,2.488-1.575,4.043-1.575c1.554,0,2.873,0.47,3.958,1.407
			c1.085,0.938,1.628,2.227,1.628,3.864v1.68h-8.232c0.098,0.616,0.42,1.12,0.966,1.512c0.547,0.393,1.162,0.589,1.849,0.589
			c1.105,0,2.016-0.371,2.729-1.113L407.148,67.382z M404.124,60.683c-0.434-0.364-0.963-0.546-1.585-0.546
			c-0.624,0-1.194,0.188-1.712,0.566c-0.519,0.378-0.819,0.89-0.903,1.533h4.956C404.81,61.565,404.558,61.047,404.124,60.683z"/>
		<path fill="#FFFFFF" d="M416.283,60.494c-0.938,0-1.638,0.333-2.1,0.998s-0.693,1.543-0.693,2.636v4.893h-3.149V57.722h3.149
			v1.491c0.406-0.462,0.914-0.854,1.522-1.177c0.609-0.321,1.229-0.489,1.859-0.504l0.021,2.961H416.283z"/>
	</g>
</g>
</svg>
