<?xml version="1.0" encoding="UTF-8"?>
<svg width="19px" height="21px" viewBox="0 0 19 21" version="1.1" xmlns="http://www.w3.org/2000/svg" xmlns:xlink="http://www.w3.org/1999/xlink">
    <title>calendar-number</title>
    <g id="calendar-number" stroke="none" stroke-width="1" fill="none" fill-rule="evenodd">
        <g id="calendar-regular" fill="#000000" fill-rule="nonzero">
            <path d="M16.40625,2.625 L14.4375,2.625 L14.4375,0.4921875 C14.4375,0.221484375 14.2160156,0 13.9453125,0 L12.3046875,0 C12.0339844,0 11.8125,0.221484375 11.8125,0.4921875 L11.8125,2.625 L6.5625,2.625 L6.5625,0.4921875 C6.5625,0.221484375 6.34101562,0 6.0703125,0 L4.4296875,0 C4.15898438,0 3.9375,0.221484375 3.9375,0.4921875 L3.9375,2.625 L1.96875,2.625 C0.881835938,2.625 0,3.50683594 0,4.59375 L0,19.03125 C0,20.1181641 0.881835938,21 1.96875,21 L16.40625,21 C17.4931641,21 18.375,20.1181641 18.375,19.03125 L18.375,4.59375 C18.375,3.50683594 17.4931641,2.625 16.40625,2.625 Z M16.1601562,19.03125 L2.21484375,19.03125 C2.07949219,19.03125 1.96875,18.9205078 1.96875,18.7851562 L1.96875,6.5625 L16.40625,6.5625 L16.40625,18.7851562 C16.40625,18.9205078 16.2955078,19.03125 16.1601562,19.03125 Z" id="Shape"></path>
        </g>
        <text id="#" font-family="Lato-Bold, Lato" font-size="12" font-weight="bold" line-spacing="12" letter-spacing="-0.126315789" fill="#000000">
            <tspan x="6" y="18">#</tspan>
        </text>
    </g>
</svg>