<?xml version="1.0" encoding="utf-8"?>
<!-- Generator: Adobe Illustrator 23.0.1, SVG Export Plug-In . SVG Version: 6.00 Build 0)  -->
<svg version="1.1" id="Layer_1" xmlns="http://www.w3.org/2000/svg" xmlns:xlink="http://www.w3.org/1999/xlink" x="0px" y="0px"
	 viewBox="0 0 18 20" style="enable-background:new 0 0 18 20;" xml:space="preserve">
<style type="text/css">
	.st0{fill:#FFFFFF;}
</style>
<path class="st0" d="M15.8,10.9c0,0.3-0.3,0.6-0.6,0.6L11,6.7L9.3,8C9.1,8.1,8.9,8.1,8.8,8L7,6.7l-4.3,5c-0.3,0-0.6-0.3-0.6-0.6
	l4.2-4.8L1.7,2.6C1.6,2.3,2,2,2.2,2L9,7l6.4-5c0.3,0,0.6,0.3,0.6,0.6l-4.4,3.6C11.6,6.2,15.8,10.9,15.8,10.9z M1.4,1
	C0.6,1,0,1.7,0,2.6V12c0,0.9,0.6,1.6,1.4,1.6l2.4-0.2l-2.4,5c-0.1,1,0.4,0.6,0.7,0.6l9.2-5.3h5.3c0.8,0,1.4-0.7,1.4-1.6V2.6
	C18,1.7,17.4,1,16.6,1H1.4z"/>
</svg>
