<?xml version="1.0" encoding="UTF-8"?>
<svg width="12px" height="7px" viewBox="0 0 12 7" version="1.1" xmlns="http://www.w3.org/2000/svg" xmlns:xlink="http://www.w3.org/1999/xlink">
    <!-- Generator: Sketch 55.2 (78181) - https://sketchapp.com -->
    <title>section-menu-down-arrow</title>
    <desc>Created with Sketch.</desc>
    <g id="Page-1" stroke="none" stroke-width="1" fill="none" fill-rule="evenodd">
        <g id="MOBILE---CLOSED" transform="translate(-10.000000, -634.000000)" fill="#317490">
            <g id="open" transform="translate(5.000000, 621.000000)">
                <g id="section-menu-down-arrow" transform="translate(5.000000, 13.000000)">
                    <path d="M10.8420513,0.798367643 L10.3075606,0.263701926 C10.1222518,0.0879298061 9.90597073,0 9.65897984,0 C9.40700189,0 9.1931706,0.0879298061 9.01731099,0.263701926 L5.55296412,3.72813629 L2.08861725,0.263789418 C1.91275763,0.0880172985 1.69892634,8.74923444e-05 1.44703588,8.74923444e-05 C1.1999575,8.74923444e-05 0.983676428,0.0880172985 0.798367643,0.263789418 L0.270876298,0.798455135 C0.0902920994,0.978951842 7.10542736e-15,1.19523292 7.10542736e-15,1.44712338 C7.10542736e-15,1.70373842 0.0903795918,1.91756971 0.270876298,2.08861725 L4.91138275,6.7291237 C5.08251778,6.9097079 5.29626158,7 5.55296412,7 C5.80485458,7 6.02104816,6.9097079 6.20154486,6.7291237 L10.8420513,2.08861725 C11.0179109,1.91275763 11.1059282,1.69892634 11.1059282,1.44712338 C11.1059282,1.1999575 11.0179109,0.983763921 10.8420513,0.798367643 L10.8420513,0.798367643 Z" id="Shape"></path>
                </g>
            </g>
        </g>
    </g>
</svg>